{
    "asset" : {
        "generator" : "Khronos glTF Blender I/O v1.5.17",
        "version" : "2.0"
    },
    "scene" : 0,
    "scenes" : [
        {
            "name" : "Scene",
            "nodes" : [
                5
            ]
        }
    ],
    "nodes" : [
        {
            "mesh" : 0,
            "name" : "Body_Material.001_0"
        },
        {
            "children" : [
                0
            ],
            "name" : "Body",
            "translation" : [
                0,
                1.1833655834197998,
                -0.030421482399106026
            ]
        },
        {
            "mesh" : 1,
            "name" : "BowTie_Material.001_0"
        },
        {
            "children" : [
                2
            ],
            "name" : "BowTie",
            "translation" : [
                0,
                1.9937889575958252,
                0.031734172254800797
            ]
        },
        {
            "name" : "DollHead",
            "translation" : [
                0,
                2.0339415073394775,
                -0.07813335210084915
            ]
        },
        {
            "children" : [
                1,
                3,
                4
            ],
            "name" : "Squid Game Doll"
        }
    ],
    "animations" : [
        {
            "channels" : [
                {
                    "sampler" : 0,
                    "target" : {
                        "node" : 5,
                        "path" : "translation"
                    }
                },
                {
                    "sampler" : 1,
                    "target" : {
                        "node" : 5,
                        "path" : "rotation"
                    }
                },
                {
                    "sampler" : 2,
                    "target" : {
                        "node" : 5,
                        "path" : "scale"
                    }
                }
            ],
            "name" : "anim",
            "samplers" : [
                {
                    "input" : 8,
                    "interpolation" : "LINEAR",
                    "output" : 9
                },
                {
                    "input" : 8,
                    "interpolation" : "LINEAR",
                    "output" : 10
                },
                {
                    "input" : 8,
                    "interpolation" : "LINEAR",
                    "output" : 11
                }
            ]
        },
        {
            "channels" : [
                {
                    "sampler" : 0,
                    "target" : {
                        "node" : 1,
                        "path" : "translation"
                    }
                },
                {
                    "sampler" : 1,
                    "target" : {
                        "node" : 1,
                        "path" : "rotation"
                    }
                },
                {
                    "sampler" : 2,
                    "target" : {
                        "node" : 1,
                        "path" : "scale"
                    }
                }
            ],
            "name" : "BodyAction",
            "samplers" : [
                {
                    "input" : 8,
                    "interpolation" : "LINEAR",
                    "output" : 12
                },
                {
                    "input" : 8,
                    "interpolation" : "LINEAR",
                    "output" : 13
                },
                {
                    "input" : 8,
                    "interpolation" : "LINEAR",
                    "output" : 14
                }
            ]
        },
        {
            "channels" : [
                {
                    "sampler" : 0,
                    "target" : {
                        "node" : 0,
                        "path" : "translation"
                    }
                },
                {
                    "sampler" : 1,
                    "target" : {
                        "node" : 0,
                        "path" : "rotation"
                    }
                },
                {
                    "sampler" : 2,
                    "target" : {
                        "node" : 0,
                        "path" : "scale"
                    }
                }
            ],
            "name" : "Body_Material.001_0Action",
            "samplers" : [
                {
                    "input" : 8,
                    "interpolation" : "LINEAR",
                    "output" : 15
                },
                {
                    "input" : 8,
                    "interpolation" : "LINEAR",
                    "output" : 16
                },
                {
                    "input" : 8,
                    "interpolation" : "LINEAR",
                    "output" : 17
                }
            ]
        },
        {
            "channels" : [
                {
                    "sampler" : 0,
                    "target" : {
                        "node" : 3,
                        "path" : "translation"
                    }
                },
                {
                    "sampler" : 1,
                    "target" : {
                        "node" : 3,
                        "path" : "rotation"
                    }
                },
                {
                    "sampler" : 2,
                    "target" : {
                        "node" : 3,
                        "path" : "scale"
                    }
                }
            ],
            "name" : "BowTieAction",
            "samplers" : [
                {
                    "input" : 8,
                    "interpolation" : "LINEAR",
                    "output" : 18
                },
                {
                    "input" : 8,
                    "interpolation" : "LINEAR",
                    "output" : 19
                },
                {
                    "input" : 8,
                    "interpolation" : "LINEAR",
                    "output" : 20
                }
            ]
        },
        {
            "channels" : [
                {
                    "sampler" : 0,
                    "target" : {
                        "node" : 2,
                        "path" : "translation"
                    }
                },
                {
                    "sampler" : 1,
                    "target" : {
                        "node" : 2,
                        "path" : "rotation"
                    }
                },
                {
                    "sampler" : 2,
                    "target" : {
                        "node" : 2,
                        "path" : "scale"
                    }
                }
            ],
            "name" : "BowTie_Material.001_0Action",
            "samplers" : [
                {
                    "input" : 8,
                    "interpolation" : "LINEAR",
                    "output" : 21
                },
                {
                    "input" : 8,
                    "interpolation" : "LINEAR",
                    "output" : 22
                },
                {
                    "input" : 8,
                    "interpolation" : "LINEAR",
                    "output" : 23
                }
            ]
        },
        {
            "channels" : [
                {
                    "sampler" : 0,
                    "target" : {
                        "node" : 4,
                        "path" : "translation"
                    }
                },
                {
                    "sampler" : 1,
                    "target" : {
                        "node" : 4,
                        "path" : "rotation"
                    }
                },
                {
                    "sampler" : 2,
                    "target" : {
                        "node" : 4,
                        "path" : "scale"
                    }
                }
            ],
            "name" : "DollHeadAction",
            "samplers" : [
                {
                    "input" : 8,
                    "interpolation" : "LINEAR",
                    "output" : 24
                },
                {
                    "input" : 8,
                    "interpolation" : "LINEAR",
                    "output" : 25
                },
                {
                    "input" : 8,
                    "interpolation" : "LINEAR",
                    "output" : 26
                }
            ]
        }
    ],
    "materials" : [
        {
            "doubleSided" : true,
            "name" : "Material.001",
            "pbrMetallicRoughness" : {
                "baseColorTexture" : {
                    "index" : 0
                },
                "metallicFactor" : 0,
                "roughnessFactor" : 0.8211145401000977
            }
        }
    ],
    "meshes" : [
        {
            "name" : "Body_Material.001_0",
            "primitives" : [
                {
                    "attributes" : {
                        "POSITION" : 0,
                        "NORMAL" : 1,
                        "TEXCOORD_0" : 2
                    },
                    "indices" : 3,
                    "material" : 0
                }
            ]
        },
        {
            "name" : "BowTie_Material.001_0",
            "primitives" : [
                {
                    "attributes" : {
                        "POSITION" : 4,
                        "NORMAL" : 5,
                        "TEXCOORD_0" : 6
                    },
                    "indices" : 7,
                    "material" : 0
                }
            ]
        }
    ],
    "textures" : [
        {
            "sampler" : 0,
            "source" : 0
        }
    ],
    "images" : [
        {
            "bufferView" : 4,
            "mimeType" : "image/png",
            "name" : "Material.001_baseColor"
        }
    ],
    "accessors" : [
        {
            "bufferView" : 0,
            "componentType" : 5126,
            "count" : 1719,
            "max" : [
                0.6073890924453735,
                0.8314039707183838,
                0.3132644593715668
            ],
            "min" : [
                -0.6073876619338989,
                -1.1823089122772217,
                -0.24697647988796234
            ],
            "type" : "VEC3"
        },
        {
            "bufferView" : 1,
            "componentType" : 5126,
            "count" : 1719,
            "type" : "VEC3"
        },
        {
            "bufferView" : 2,
            "componentType" : 5126,
            "count" : 1719,
            "type" : "VEC2"
        },
        {
            "bufferView" : 3,
            "componentType" : 5123,
            "count" : 6720,
            "type" : "SCALAR"
        },
        {
            "bufferView" : 5,
            "componentType" : 5126,
            "count" : 52,
            "max" : [
                0.1375870406627655,
                0.04521369934082031,
                0.02641506865620613
            ],
            "min" : [
                -0.1375870406627655,
                -0.0785897970199585,
                -0.0504293218255043
            ],
            "type" : "VEC3"
        },
        {
            "bufferView" : 6,
            "componentType" : 5126,
            "count" : 52,
            "type" : "VEC3"
        },
        {
            "bufferView" : 7,
            "componentType" : 5126,
            "count" : 52,
            "type" : "VEC2"
        },
        {
            "bufferView" : 8,
            "componentType" : 5123,
            "count" : 228,
            "type" : "SCALAR"
        },
        {
            "bufferView" : 9,
            "componentType" : 5126,
            "count" : 20,
            "max" : [
                0.8
            ],
            "min" : [
                0.04
            ],
            "type" : "SCALAR"
        },
        {
            "bufferView" : 10,
            "componentType" : 5126,
            "count" : 20,
            "type" : "VEC3"
        },
        {
            "bufferView" : 11,
            "componentType" : 5126,
            "count" : 20,
            "type" : "VEC4"
        },
        {
            "bufferView" : 12,
            "componentType" : 5126,
            "count" : 20,
            "type" : "VEC3"
        },
        {
            "bufferView" : 13,
            "componentType" : 5126,
            "count" : 20,
            "type" : "VEC3"
        },
        {
            "bufferView" : 14,
            "componentType" : 5126,
            "count" : 20,
            "type" : "VEC4"
        },
        {
            "bufferView" : 15,
            "componentType" : 5126,
            "count" : 20,
            "type" : "VEC3"
        },
        {
            "bufferView" : 16,
            "componentType" : 5126,
            "count" : 20,
            "type" : "VEC3"
        },
        {
            "bufferView" : 17,
            "componentType" : 5126,
            "count" : 20,
            "type" : "VEC4"
        },
        {
            "bufferView" : 18,
            "componentType" : 5126,
            "count" : 20,
            "type" : "VEC3"
        },
        {
            "bufferView" : 19,
            "componentType" : 5126,
            "count" : 20,
            "type" : "VEC3"
        },
        {
            "bufferView" : 20,
            "componentType" : 5126,
            "count" : 20,
            "type" : "VEC4"
        },
        {
            "bufferView" : 21,
            "componentType" : 5126,
            "count" : 20,
            "type" : "VEC3"
        },
        {
            "bufferView" : 22,
            "componentType" : 5126,
            "count" : 20,
            "type" : "VEC3"
        },
        {
            "bufferView" : 23,
            "componentType" : 5126,
            "count" : 20,
            "type" : "VEC4"
        },
        {
            "bufferView" : 24,
            "componentType" : 5126,
            "count" : 20,
            "type" : "VEC3"
        },
        {
            "bufferView" : 25,
            "componentType" : 5126,
            "count" : 20,
            "type" : "VEC3"
        },
        {
            "bufferView" : 26,
            "componentType" : 5126,
            "count" : 20,
            "type" : "VEC4"
        },
        {
            "bufferView" : 27,
            "componentType" : 5126,
            "count" : 20,
            "type" : "VEC3"
        }
    ],
    "bufferViews" : [
        {
            "buffer" : 0,
            "byteLength" : 20628,
            "byteOffset" : 0
        },
        {
            "buffer" : 0,
            "byteLength" : 20628,
            "byteOffset" : 20628
        },
        {
            "buffer" : 0,
            "byteLength" : 13752,
            "byteOffset" : 41256
        },
        {
            "buffer" : 0,
            "byteLength" : 13440,
            "byteOffset" : 55008
        },
        {
            "buffer" : 0,
            "byteLength" : 577,
            "byteOffset" : 68448
        },
        {
            "buffer" : 0,
            "byteLength" : 624,
            "byteOffset" : 69028
        },
        {
            "buffer" : 0,
            "byteLength" : 624,
            "byteOffset" : 69652
        },
        {
            "buffer" : 0,
            "byteLength" : 416,
            "byteOffset" : 70276
        },
        {
            "buffer" : 0,
            "byteLength" : 456,
            "byteOffset" : 70692
        },
        {
            "buffer" : 0,
            "byteLength" : 80,
            "byteOffset" : 71148
        },
        {
            "buffer" : 0,
            "byteLength" : 240,
            "byteOffset" : 71228
        },
        {
            "buffer" : 0,
            "byteLength" : 320,
            "byteOffset" : 71468
        },
        {
            "buffer" : 0,
            "byteLength" : 240,
            "byteOffset" : 71788
        },
        {
            "buffer" : 0,
            "byteLength" : 240,
            "byteOffset" : 72028
        },
        {
            "buffer" : 0,
            "byteLength" : 320,
            "byteOffset" : 72268
        },
        {
            "buffer" : 0,
            "byteLength" : 240,
            "byteOffset" : 72588
        },
        {
            "buffer" : 0,
            "byteLength" : 240,
            "byteOffset" : 72828
        },
        {
            "buffer" : 0,
            "byteLength" : 320,
            "byteOffset" : 73068
        },
        {
            "buffer" : 0,
            "byteLength" : 240,
            "byteOffset" : 73388
        },
        {
            "buffer" : 0,
            "byteLength" : 240,
            "byteOffset" : 73628
        },
        {
            "buffer" : 0,
            "byteLength" : 320,
            "byteOffset" : 73868
        },
        {
            "buffer" : 0,
            "byteLength" : 240,
            "byteOffset" : 74188
        },
        {
            "buffer" : 0,
            "byteLength" : 240,
            "byteOffset" : 74428
        },
        {
            "buffer" : 0,
            "byteLength" : 320,
            "byteOffset" : 74668
        },
        {
            "buffer" : 0,
            "byteLength" : 240,
            "byteOffset" : 74988
        },
        {
            "buffer" : 0,
            "byteLength" : 240,
            "byteOffset" : 75228
        },
        {
            "buffer" : 0,
            "byteLength" : 320,
            "byteOffset" : 75468
        },
        {
            "buffer" : 0,
            "byteLength" : 240,
            "byteOffset" : 75788
        }
    ],
    "samplers" : [
        {
            "magFilter" : 9729,
            "minFilter" : 9987
        }
    ],
    "buffers" : [
        {
            "byteLength" : 76028,
            "uri" : "data:application/octet-stream;base64,"
        }
    ]
}
