{
    "asset" : {
        "generator" : "Khronos glTF Blender I/O v1.5.17",
        "version" : "2.0"
    },
    "scene" : 0,
    "scenes" : [
        {
            "name" : "Scene",
            "nodes" : [
                0
            ]
        }
    ],
    "nodes" : [
        {
            "mesh" : 0,
            "name" : "Dead Tree",
            "rotation" : [
                -0.7071068286895752,
                0,
                0,
                0.7071067094802856
            ],
            "translation" : [
                0.07421326637268066,
                0.07195889949798584,
                -0.06868362426757812
            ]
        }
    ],
    "materials" : [
        {
            "doubleSided" : true,
            "name" : "wood_3_mat",
            "pbrMetallicRoughness" : {
                "baseColorFactor" : [
                    0.14239826798439026,
                    0.07231166958808899,
                    0.057635486125946045,
                    1
                ],
                "metallicFactor" : 0
            }
        }
    ],
    "meshes" : [
        {
            "name" : "dead_tree.001_0",
            "primitives" : [
                {
                    "attributes" : {
                        "POSITION" : 0,
                        "NORMAL" : 1,
                        "TEXCOORD_0" : 2
                    },
                    "indices" : 3,
                    "material" : 0
                }
            ]
        }
    ],
    "accessors" : [
        {
            "bufferView" : 0,
            "componentType" : 5126,
            "count" : 314,
            "max" : [
                2.685189962387085,
                3.431030035018921,
                6.554299831390381
            ],
            "min" : [
                -2.018739938735962,
                -1.5175000429153442,
                -0.39706000685691833
            ],
            "type" : "VEC3"
        },
        {
            "bufferView" : 1,
            "componentType" : 5126,
            "count" : 314,
            "type" : "VEC3"
        },
        {
            "bufferView" : 2,
            "componentType" : 5126,
            "count" : 314,
            "type" : "VEC2"
        },
        {
            "bufferView" : 3,
            "componentType" : 5123,
            "count" : 780,
            "type" : "SCALAR"
        }
    ],
    "bufferViews" : [
        {
            "buffer" : 0,
            "byteLength" : 3768,
            "byteOffset" : 0
        },
        {
            "buffer" : 0,
            "byteLength" : 3768,
            "byteOffset" : 3768
        },
        {
            "buffer" : 0,
            "byteLength" : 2512,
            "byteOffset" : 7536
        },
        {
            "buffer" : 0,
            "byteLength" : 1560,
            "byteOffset" : 10048
        }
    ],
    "buffers" : [
        {
            "byteLength" : 11608,
            "uri" : "data:application/octet-stream;base64,"
        }
    ]
}
